<?xml version="1.0" encoding="UTF-8" standalone="no"?>
<svg
   xmlns:dc="http://purl.org/dc/elements/1.1/"
   xmlns:cc="http://creativecommons.org/ns#"
   xmlns:rdf="http://www.w3.org/1999/02/22-rdf-syntax-ns#"
   xmlns:svg="http://www.w3.org/2000/svg"
   xmlns="http://www.w3.org/2000/svg"
   xmlns:sodipodi="http://sodipodi.sourceforge.net/DTD/sodipodi-0.dtd"
   xmlns:inkscape="http://www.inkscape.org/namespaces/inkscape"
   width="1500"
   height="500"
   viewBox="0 0 1500 300"
   version="1.1"
   id="svg5"
   sodipodi:docname="banner.svg"
   inkscape:version="0.92.3 (2405546, 2018-03-11)"
   style="font-size:100px;font-family:Iceland, cursive;fill:#008000">
  <metadata
     id="metadata24">
    <rdf:RDF>
      <cc:Work
         rdf:about="">
        <dc:format>image/svg+xml</dc:format>
        <dc:type
           rdf:resource="http://purl.org/dc/dcmitype/StillImage" />
        <dc:title />
      </cc:Work>
    </rdf:RDF>
  </metadata>
  <defs
     id="defs22" />
  <sodipodi:namedview
     pagecolor="#ffffff"
     bordercolor="#666666"
     borderopacity="1"
     objecttolerance="10"
     gridtolerance="10"
     guidetolerance="10"
     inkscape:pageopacity="0"
     inkscape:pageshadow="2"
     inkscape:window-width="1920"
     inkscape:window-height="1001"
     id="namedview20"
     showgrid="false"
     inkscape:zoom="0.90509672"
     inkscape:cx="637.77797"
     inkscape:cy="191.75978"
     inkscape:window-x="-9"
     inkscape:window-y="-9"
     inkscape:window-maximized="1"
     inkscape:current-layer="g24" />
  <style
     id="style5">
         
        @import url('https://fonts.googleapis.com/css?family=Iceland');
        .train {
            font-family: &quot;Iceland&quot;;
            font-size: 50px;
            transform: translate(500px, 0);
            -webkit-animation: movement 10s infinite linear;
            animation: movement 20s infinite linear;
            fill: rgb(3, 102, 214);
            fill: linear-gradient(90deg, rgba(2, 0, 36, 1) 0%, rgba(9, 9, 121, 1) 35%, rgba(0, 212, 255, 1) 100%);
        }

        *.floating {
            animation-name: floating;
            animation-duration: 3s;
            animation-iteration-count: infinite;
            animation-timing-function: ease-in-out;
        }

        @keyframes floating {
            from {
                transform: translateY(-5px);
            }

            50% {
                transform: translateY(9px);
            }

            to {
                transform: translateY(-5px);
            }
        }

        @-webkit-keyframes movement {
            to {
                -webkit-transform: translate(-500px, 0);
                transform: translate(-500px, 0);
            }
        }


        @keyframes movement {
            to {
                -webkit-transform: translate(-500px, 0);
                transform: translate(-500px, 0);
            }
        }
    </style>
  <g
     id="g24"
     transform="matrix(3.2469179,0,0,3.2469179,-14.850893,-65.15234)">
    <g
       class="train"
       aria-label="ML"
       style="font-size:50px;font-family:Iceland"
       id="text6">
      <path
         d="m 247.84723,108.24861 h -4 V 89.848607 l 1.5,-2.5 h -2.25 l -6.15,13.950003 h -2.9 l -5.95,-13.950003 h -2.25 l 1.5,2.5 v 18.400003 h -4 V 83.798607 h 7.15 l 4.95,11.7 h 0.5 l 4.95,-11.7 h 6.95 z"
         style="font-size:50px;font-family:Iceland"
         id="path824" />
      <path
         d="m 274.34332,108.29861 h -17.5 V 83.798607 h 4 v 21.000003 h 9.5 v -3.5 h 4 z"
         style="font-size:50px;font-family:Iceland"
         id="path826" />
    </g>
    <g
       class="train"
       aria-label="AI"
       style="font-size:50px;font-family:Iceland"
       id="text8">
      <path
         d="m 405.26389,107.95834 h -4 v -7 h -13 v 7 h -4 V 86.958344 q 0,-1.45 1,-2.45 1.05,-1.05 2.5,-1.05 h 17.5 z m -4,-10.499996 v -10.5 h -13 v 13.499996 l 3,-2.999996 z"
         style="font-size:50px;font-family:Iceland"
         id="path829" />
      <path
         d="m 418.24435,107.95834 h -4 V 83.458344 h 4 z"
         style="font-size:50px;font-family:Iceland"
         id="path831" />
    </g>
    <g
       class="train"
       id="g14">
      <path
         d="m 75.093614,-3.7937706 c -2.293052,-1.5132886 -5.144265,-2.0793658 -7.851773,-1.6311696 -1.743218,0.3736368 -3.434369,1.0688406 -4.846438,2.1782944 -2.384689,1.9058767 -4.088337,4.8272773 -4.088337,7.9286234 -0.04373,1.5309914 0.0042,3.1088434 0.587321,4.5450721 -1.274611,0.6268916 -2.259727,1.6880263 -3.230265,2.7023003 -1.062175,1.245038 -2.032712,2.63024 -2.472162,4.228294 -0.227013,1.395824 -0.51651,2.831637 -0.170781,4.236208 0.08122,1.543696 0.614396,3.010124 1.199634,4.423443 0.641471,1.494127 1.555775,2.858087 2.642944,4.061053 0.01458,0.763726 -0.09372,1.551402 0.141623,2.292009 0.356141,2.849339 1.83694,5.537894 4.023773,7.395869 1.503708,1.228167 3.269836,2.209535 5.198414,2.531311 0.737275,0.298868 1.541197,0.191192 2.315961,0.217851 4.059179,0.2166 8.095448,-2.055415 10.188559,-5.518941 0.718531,-1.119451 1.174642,-2.385732 1.514122,-3.664925 1.389159,-0.379676 2.705425,-1.026978 3.792593,-1.979187 1.339174,-1.282734 2.328456,-2.972219 2.592959,-4.823738 3.02616,-0.155577 5.923194,-1.411861 8.278725,-3.283581 2.438838,-1.931079 4.16123,-4.681698 5.033877,-7.64871 0.108297,-0.559829 0.193697,-1.121949 0.370727,-1.664075 0.0667,-0.913055 0.0417,-1.831108 0.0479,-2.7468709 -0.025,-0.862237 0.0749,-1.749883 -0.23327,-2.5744232 C 99.994335,6.1219551 99.438255,4.9377329 98.919658,3.7664234 98.246947,2.4099618 97.363885,1.1628425 96.353778,0.03568612 94.995859,-1.2876597 93.462993,-2.4604271 91.726023,-3.2378987 88.514502,-4.6955793 84.771894,-5.0892088 81.381262,-4.0495265 c -1.470386,0.4392416 -2.942853,1.0003199 -4.177893,1.9337853 -0.737275,-0.5192163 -1.310017,-1.2450365 -2.109773,-1.6780294 m -0.993448,2.2491054 c 1.21213,0.70770105 2.020218,1.87276189 2.792899,3.0061668 1.889006,-1.81069795 4.34659,-2.9924207 6.922889,-3.3950067 1.430813,-0.1330841 2.884536,-0.1545358 4.300771,0.1014274 0.574825,0.2011891 1.178808,0.2874125 1.757797,0.4711066 0.951793,0.38238307 1.897338,0.80267151 2.734583,1.39790694 2.449253,1.56764676 4.225797,4.06646766 5.092195,6.81937856 0.104134,0.4484049 0.164538,0.9068068 0.320734,1.3410493 0.570659,3.1000963 -0.05412,6.3965913 -1.778621,9.0405763 -1.587016,2.518815 -4.117494,4.446144 -6.981204,5.268184 -1.572437,0.525465 -3.25734,0.553374 -4.900588,0.546918 0.08331,0.786426 0.08122,1.584308 -0.02707,2.366778 -0.549833,2.6746 -3.232348,4.747718 -5.979427,4.427399 -0.233262,1.026978 -0.227014,2.108315 -0.685208,3.077187 -1.095499,3.105094 -3.986283,5.477078 -7.239458,5.962139 -1.299604,0.344478 -2.651275,0.108717 -3.940465,-0.177446 -2.907427,-0.776221 -5.396252,-3.02137 -6.381368,-5.882164 -0.635223,-1.553693 -0.506095,-3.248176 -0.476937,-4.888093 -1.52037,-1.184013 -2.567968,-2.902656 -3.184446,-4.712103 -0.404044,-1.204425 -0.422787,-2.492365 -0.40196,-3.749899 -0.02916,-3.255674 1.841105,-6.350771 4.484048,-8.172923 0.543585,-0.405294 1.207965,-0.600443 1.741136,-1.009276 C 61.966367,9.3066087 61.256167,8.4710302 61.12704,7.4223918 60.587621,5.7116635 60.87295,3.8424416 61.539414,2.2125226 c 1.239206,-3.14549954 4.565275,-5.3794011 7.96632,-5.1717559 1.643249,-0.055819 3.255257,0.4761047 4.594433,1.4145681 z"
         id="cloud"
         class="floating"
         inkscape:connector-curvature="0" />
      <path
         d="m 144.96397,0.3703761 c -1.08717,-2.5236052 -3.15946,-4.562567 -5.66911,-5.674311 -1.66199,-0.6450123 -3.45728,-0.9919893 -5.24631,-0.839952 -3.03866,0.28408 -6.0669,1.7900784 -7.77055,4.3824127 -0.87472,1.25649229 -1.70156,2.60108241 -2.00356,4.1220767 -1.40998,-0.1761968 -2.8158,0.169948 -4.18414,0.4844352 -1.57035,0.4573607 -3.14071,1.0834198 -4.38615,2.1778775 -0.95597,1.0413491 -1.98691,2.0831148 -2.468,3.4466572 -0.78102,1.3350098 -1.14132,2.8524636 -1.42666,4.3551306 -0.28323,1.601386 -0.26866,3.243177 -0.0209,4.846021 -0.40612,0.645845 -0.92888,1.245245 -1.13923,1.992934 -1.26628,2.577547 -1.50579,5.637447 -0.69771,8.390983 0.58316,1.851727 1.52037,3.642014 2.95535,4.969525 0.45194,0.654385 1.18506,1.006569 1.81611,1.453723 3.27609,2.409891 7.89552,2.725837 11.54649,0.980119 1.2142,-0.540668 2.29304,-1.348338 3.27816,-2.231819 1.36833,0.44528 2.82413,0.626683 4.25495,0.427994 1.82445,-0.336772 3.57807,-1.205883 4.81519,-2.608788 2.61588,1.531408 5.72742,2.072077 8.72443,1.801534 3.09697,-0.275958 6.04815,-1.629503 8.40578,-3.630351 0.39778,-0.408833 0.77892,-0.830789 1.22253,-1.187138 0.55816,-0.726446 1.03928,-1.50829 1.54953,-2.269516 0.45194,-0.734567 1.02053,-1.422275 1.21838,-2.279721 0.59356,-1.152565 0.77894,-2.446754 0.98928,-3.710327 0.18119,-1.504125 0.12704,-3.031159 -0.0979,-4.527994 -0.40822,-1.85131 -1.04552,-3.672839 -2.07021,-5.2765159 -1.88275,-2.9807575 -4.79645,-5.364822 -8.20166,-6.3576443 -1.47039,-0.4398656 -3.0095,-0.7795536 -4.55278,-0.6764599 -0.33115,-0.8387032 -0.41237,-1.7600889 -0.84141,-2.5608858 m -2.06604,1.3341758 c 0.62481,1.2571171 0.66022,2.6743931 0.68522,4.0464746 2.57212,-0.4769379 5.27546,-0.1151732 7.64766,0.9622065 1.26836,0.6739611 2.49715,1.4547647 3.54059,2.4465455 0.36863,0.483186 0.82891,0.8874375 1.21005,1.3579195 0.58524,0.842451 1.14549,1.712602 1.51827,2.670227 1.18507,2.654191 1.29962,5.718048 0.51235,8.495326 -0.15828,0.431743 -0.3603,0.84745 -0.4686,1.296688 -1.22462,2.904738 -3.55725,5.316503 -6.44803,6.580285 -2.7096,1.234205 -5.88363,1.455597 -8.72859,0.570658 -1.60368,-0.424245 -3.02616,-1.326262 -4.39658,-2.23411 -0.3603,0.70416 -0.80184,1.369374 -1.32251,1.963776 -1.9265,1.933785 -5.30672,2.194123 -7.42691,0.418206 -0.76018,0.729986 -1.3475,1.637209 -2.26388,2.195372 -2.62004,1.993975 -6.33766,2.390104 -9.32216,1.009484 -1.27461,-0.425288 -2.27639,-1.364792 -3.19486,-2.310962 -2.00564,-2.245773 -2.8533,-5.488534 -2.10562,-8.419931 0.32075,-1.648248 1.36001,-2.992838 2.28472,-4.347633 -0.62063,-1.824652 -0.55399,-3.835913 -0.0749,-5.686391 0.32281,-1.229 1.01427,-2.31596 1.72239,-3.3558514 1.76404,-2.7366653 5.02555,-4.2974394 8.23499,-4.3688758 0.67479,-0.041237 1.33917,0.161409 2.00772,0.1116326 0.2895,-0.9926136 0.1562,-2.0804075 0.62272,-3.0276179 0.48735,-1.72697413 1.75364,-3.1321702 3.20319,-4.1287409 2.76375,-1.9491976 6.77086,-1.9893932 9.4992,0.050817 1.40373,0.855156 2.45966,2.18537528 3.06364,3.7044949 z"
         id="path20"
         class="floating"
         inkscape:connector-curvature="0" />
      <path
         d="m 220.13688,8.0155442 c 0.67896,-2.662313 0.28116,-5.5424762 -1.02886,-7.95403238 -0.92471,-1.52536822 -2.13477,-2.89536662 -3.64471,-3.86652902 -2.58256,-1.629295 -5.90029,-2.2836784 -8.83065,-1.268572 -1.45997,0.4615265 -2.9366,1.022189 -4.10292,2.0439606 -1.00803,-0.999695 -2.33469,-1.5834756 -3.60931,-2.1691308 -1.52454,-0.5964842 -3.15112,-1.0586346 -4.80479,-0.950543 -1.39331,0.2413849 -2.84497,0.4384085 -4.05917,1.2248345 -1.4329,0.581906 -2.64294,1.5643151 -3.78843,2.579839 -1.20172,1.0957069 -2.18891,2.40614072 -2.96993,3.8277904 -0.71852,0.263045 -1.49745,0.4192471 -2.12018,0.8830638 -2.5763,1.2700298 -4.63193,3.5489178 -5.67119,6.2235188 -0.66855,1.8223609 -1.01844,3.8127959 -0.69146,5.7405409 -0.0396,0.79434 0.3249,1.520162 0.55192,2.259935 1.12466,3.907351 4.59235,6.975998 8.54947,7.820324 1.29336,0.313238 2.64087,0.330732 3.95921,0.231596 0.81434,1.188387 1.85569,2.219739 3.11156,2.935979 1.65157,0.846201 3.57182,1.227751 5.40667,0.870568 1.13716,2.808936 3.27401,5.135517 5.81282,6.749816 2.62212,1.671574 5.78573,2.398643 8.87438,2.251814 0.56441,-0.08144 1.12465,-0.182862 1.69531,-0.194108 0.88306,-0.235345 1.74322,-0.560871 2.60962,-0.85349 0.80808,-0.306156 1.67866,-0.503388 2.35762,-1.0628 1.17255,-0.551291 2.10977,-1.462887 3.04699,-2.335746 1.06216,-1.081753 1.95148,-2.323875 2.68459,-3.647846 0.80601,-1.715935 1.41416,-3.547668 1.57869,-5.443756 0.32698,-3.510596 -0.52693,-7.176561 -2.61796,-10.040897 -0.89764,-1.245453 -1.90983,-2.453418 -3.19486,-3.313364 0.24992,-0.8664021 0.7477,-1.645956 0.89557,-2.5427658 m -2.45134,-0.2032713 c -0.27284,1.3768716 -1.108,2.5215221 -1.9265,3.6236861 2.32847,1.191512 4.25079,3.12738 5.47334,5.429386 0.59565,1.307518 1.09132,2.675434 1.31417,4.098126 -0.005,0.607939 0.11247,1.208173 0.12914,1.813821 -0.05,1.025104 -0.13747,2.055415 -0.42696,3.042406 -0.67896,2.82622 -2.45758,5.322751 -4.77563,7.043684 -0.38947,0.244718 -0.80391,0.451113 -1.16214,0.741649 -2.74292,1.554318 -6.06274,2.042086 -9.12638,1.278985 -2.89912,-0.675002 -5.54831,-2.436132 -7.26237,-4.872472 -1.01011,-1.314391 -1.5891,-2.897866 -2.12019,-4.453225 -0.71645,0.337605 -1.47038,0.596484 -2.24515,0.749771 -2.70751,0.355934 -5.54414,-1.499959 -6.13979,-4.200177 -1.0476,0.114756 -2.06811,0.474647 -3.13446,0.358641 -3.29275,-0.01875 -6.47928,-1.97294 -8.00172,-4.888301 -0.75187,-1.115077 -0.97054,-2.470081 -1.12259,-3.780723 -0.21868,-3.002833 1.08926,-6.0889755 3.46978,-7.955073 1.26004,-1.1104947 2.90328,-1.5418216 4.46323,-2.0510411 0.62064,-1.8246522 1.9015,-3.37667842 3.40938,-4.55069556 1.00594,-0.77705494 2.21806,-1.21650394 3.41146,-1.60909214 3.0678,-1.0919587 6.60423,-0.3386474 9.19093,1.56327275 0.56025,0.37967621 0.96221,0.94512851 1.52454,1.31397473 0.83308,-0.61064771 1.39124,-1.55431818 2.33887,-2.01959298 1.43915,-1.0709235 3.299,-1.4122777 5.05679,-1.3162649 3.37815,0.1405825 6.57925,2.55422062 7.49564,5.8350954 0.58939,1.5336987 0.61648,3.2321391 0.16661,4.8041597 z"
         id="path22"
         class="floating"
         inkscape:connector-curvature="0" />
      <path
         d="m 69.528644,47.846104 c -0.44778,-0.221599 -0.962206,-0.208894 -1.453723,-0.217641 -2.197247,0.005 -4.396576,0 -6.595905,0.0021 -0.485269,0.0102 -0.99553,0.01145 -1.447476,0.221598 -3.161535,1.733846 -6.335567,3.448323 -9.509599,5.159052 -0.576907,0.282622 -1.033019,0.778929 -1.318348,1.352712 -0.283247,0.511512 -0.199939,1.1207 -0.179112,1.681779 0.116631,0.596276 0.583156,1.04718 0.770598,1.617008 2.043127,5.667021 4.100833,11.328835 6.137712,16.998565 0.570659,1.48413 1.033018,3.008665 1.664076,4.468845 -6.74586,0.02165 -13.495885,0.0037 -20.243827,0.0078 -1.299602,0.05185 -2.638778,1.119242 -2.642943,2.487158 -0.02916,0.866193 -0.0062,1.734888 -0.0042,2.602331 -1.089251,0.09622 -2.182668,0.01374 -3.271918,0.05186 -1.370416,0.01021 -2.599208,1.282942 -2.549223,2.658148 -0.0084,6.058152 0.0042,12.116512 -0.0062,18.173411 0.0021,0.6269 -0.025,1.30336 0.310321,1.86173 0.456111,0.77622 1.276695,1.42581 2.213909,1.40686 1.10383,0.006 2.205577,-0.0227 3.309407,0.009 -0.0021,0.0914 -0.0021,0.27637 -0.0021,0.36863 -1.085086,0.17225 -2.190997,0.0215 -3.286498,0.11164 -0.697704,0.20993 -1.32043,0.70249 -1.691151,1.33833 -0.566493,0.87244 -0.304074,1.9642 -0.360307,2.94182 -0.04582,0.54962 0.133294,1.16631 -0.133292,1.67407 -6.510514,5.65932 -13.029359,11.30988 -19.5294598,16.97816 -0.6539673,0.62189 -1.4787157,1.10675 -1.9306612,1.91608 -0.3811338,0.61273 -0.2790816,1.37 -0.2249314,2.05396 0.3561414,1.108 1.4328963,2.0071 2.6325304,1.92607 11.200751,-0.005 22.405666,0.002 33.606416,-0.003 1.24962,0.076 2.376359,-0.8814 2.672103,-2.06291 0.08122,-0.51672 0.08331,-1.05488 -0.08331,-1.55369 -0.318653,-0.95242 -0.535253,-1.93254 -0.816418,-2.8962 0.970537,3.26317 3.38022,6.0923 6.566748,7.36775 0.985115,0.2216 1.943157,0.56087 2.942852,0.7179 1.339175,0.14184 2.690846,0.0596 4.011276,-0.19639 2.586712,-0.57108 4.923498,-2.17434 6.475109,-4.31327 0.851824,-1.10675 1.376664,-2.41468 1.845271,-3.71804 0.768516,2.66336 2.445088,5.08971 4.802701,6.58009 1.25795,0.78663 2.651275,1.38311 4.127908,1.58951 1.489129,0.19119 3.003251,0.15933 4.477802,-0.10788 4.244538,-0.85328 7.699734,-4.4626 8.568219,-8.68215 4.596515,0.0164 9.193023,-0.0314 13.78954,0.0242 0.17079,1.25877 0.75602,2.40093 1.36001,3.49893 1.15381,1.89317 2.73458,3.55225 4.65691,4.66649 0.73936,0.31532 1.45789,0.79913 2.29305,0.75727 3.00742,-0.007 6.01483,-0.0112 9.02017,0 0.54984,0.0115 1.09133,-0.0897 1.59326,-0.30511 2.69918,-1.29544 4.85477,-3.61286 6.12106,-6.31266 0.36238,-0.74853 0.53732,-1.5666 0.85181,-2.33284 0.10413,-0.005 0.31658,-0.014 0.42279,-0.019 0.48318,1.32459 0.9393,2.68335 1.74114,3.85986 1.35583,2.10852 3.29482,3.87883 5.59412,4.9033 0.90806,0.28241 1.87027,0.19765 2.80748,0.20015 1.92858,0.002 3.85924,0 5.78783,0 0.98928,-0.004 2.01604,0.0987 2.9595,-0.26972 2.81998,-1.3779 5.12135,-3.77239 6.37098,-6.65234 0.51859,-1.22316 0.94346,-2.50735 0.99553,-3.84341 0.0833,-1.87276 0.13538,-3.81801 -0.53109,-5.601 -0.55816,-1.77551 -1.52245,-3.40896 -2.74084,-4.80979 2.63462,0.002 5.26923,-0.005 7.90176,0.003 0.84559,0.0648 1.68908,-0.17099 2.33679,-0.7279 0.0583,-1.59702 -0.005,-3.19528 0.0416,-4.79188 0.24993,-0.0102 0.49569,-0.0166 0.74353,-0.0191 0.002,-0.841 0.13746,-1.75134 -0.29158,-2.51882 -0.4936,-0.79268 -1.39749,-1.33335 -2.33886,-1.34106 -0.94763,-0.0379 -1.90151,-0.005 -2.85122,-0.0177 -0.42279,-3.4827 -1.9265,-6.90935 -4.51113,-9.331733 -2.13685,-2.139146 -4.86101,-3.514143 -7.29776,-5.257985 -1.29128,-1.008235 -2.52216,-2.274515 -2.91995,-3.91589 -0.63731,-2.390729 -1.17672,-4.809575 -1.93066,-7.167397 -0.70188,-1.919831 -1.42665,-3.871319 -2.65752,-5.52394 -1.03719,-1.46372 -2.50966,-2.615037 -4.19456,-3.235473 0.0187,-0.441948 -0.0521,-0.900557 0.0541,-1.331052 0.32699,-0.520466 0.77477,-1.014274 0.806,-1.660119 0.0687,-0.913054 0.0354,-1.833815 0.0229,-2.748119 -0.0354,-1.300646 -1.1684,-2.527563 -2.50341,-2.489449 -13.2418,-0.0078 -26.48359,0.0037 -39.723305,-0.0039 -0.685208,-0.02269 -1.430814,0.04687 -1.961903,0.535671 -0.781011,0.549624 -1.099664,1.519744 -1.026769,2.446753 0.06665,1.281276 -0.316571,2.844341 0.770599,3.813004 0.770598,0.876192 2.009803,0.78122 3.065731,0.738108 0.01666,1.836315 0.01666,3.672422 -0.0021,5.508945 -7.264451,-0.0254 -14.530985,0.005 -21.797518,-0.01416 2.703341,-7.515832 5.429594,-15.02271 8.139184,-22.536252 0.293661,-0.991572 0.343645,-2.253895 -0.451946,-3.034075 -0.553998,-0.644594 -1.430814,-0.809336 -2.134765,-1.233373 -2.747079,-1.492045 -5.500406,-2.967012 -8.234988,-4.481758 m -0.793509,3.060733 c 1.126741,0.695413 2.36178,1.181723 3.530174,1.79591 1.545361,0.744565 3.067814,1.530992 4.611093,2.280763 0.364473,0.172031 0.743524,0.339271 1.026771,0.631891 -3.646805,0.08976 -7.30194,0.0125 -10.954993,0.03769 -4.681905,-0.01875 -9.365892,0.04206 -14.045716,-0.03144 -0.214518,0.0404 -0.435284,0.03541 -0.658132,-0.01146 0.504013,-0.43695 1.157979,-0.625642 1.728639,-0.948669 1.97648,-0.974911 3.92172,-2.009595 5.908614,-2.962013 0.67896,-0.310114 1.291273,-0.897643 2.084782,-0.826832 2.257643,0.02916 4.513206,-0.03687 6.768768,0.03415 m 9.340901,5.017427 c -0.235345,0.659798 -0.33948,1.390409 -0.770598,1.960235 -0.13121,1.208174 -0.814335,2.250355 -1.107995,3.415418 -0.189526,0.726861 -0.581073,1.376455 -0.797673,2.093319 -0.541502,1.648873 -1.201718,3.254632 -1.707814,4.916001 -0.472773,1.060093 -0.739357,2.194747 -1.216295,3.255882 -0.529005,1.232124 -0.82683,2.546723 -1.372498,3.772599 -0.474855,1.372498 -0.937214,2.759368 -1.503708,4.09396 -0.08539,0.338231 -0.199939,0.670004 -0.343645,0.992822 -2.763741,-0.01271 -5.525398,-0.0021 -8.287056,0 -0.324901,-0.696454 -0.535253,-1.43727 -0.81017,-2.152677 -0.206187,-0.566077 -0.543584,-1.101955 -0.541501,-1.72489 -0.551915,-0.840785 -0.689373,-1.881718 -1.07259,-2.80248 -0.651884,-1.557649 -1.124656,-3.182362 -1.751549,-4.750008 -0.464441,-1.390618 -0.912221,-2.788525 -1.487046,-4.13978 -0.685208,-2.032505 -1.387077,-4.06376 -2.172255,-6.060859 -0.07289,-0.172239 -0.08122,-0.361973 -0.07289,-0.544626 -0.426952,-0.720614 -0.649801,-1.537239 -1.033017,-2.280554 0.472772,-0.04312 0.943461,-0.09393 1.412069,-0.09747 6.645889,0.0062 13.293862,0 19.939751,0.0025 1.56619,0.02396 3.134461,-0.05706 4.696484,0.05062 m 54.899914,13.202016 c -0.0104,0.503804 -0.0104,1.006567 0.005,1.511831 -5.2859,0.04811 -10.57387,0.0062 -15.85976,0.02041 -8.02047,-0.01666 -16.04094,0.03041 -24.061405,-0.02416 0.01875,-0.500264 0.01875,-1.001778 0.0042,-1.501834 0.935131,-0.182653 1.886925,-0.08498 2.830387,-0.103926 11.577718,0 23.157518,0 34.735248,0 0.78309,0.0021 1.57243,-0.05185 2.34719,0.09768 m -1.29128,2.107065 c -0.0271,13.605643 -0.0188,27.211697 -0.002,40.81733 -1.9015,0.095 -3.80925,0.0164 -5.717,0.0418 -9.63665,-0.0115 -19.27538,0.0227 -28.909933,-0.0177 0.01246,-13.617087 0.0062,-27.235844 0.0044,-40.852941 11.540233,0.0052 23.082543,-0.01895 34.624853,0.01146 m 3.10114,6.391383 c 0.6019,0.279916 1.08924,0.75477 1.6599,1.087794 0.3499,0.554623 0.831,1.020522 1.12259,1.612008 0.37696,0.723113 0.73935,1.45893 1.01635,2.228903 0.0791,0.0379 0.23326,0.112675 0.31241,0.149331 0.0228,0.395087 0.0479,0.791424 0.0625,1.190261 0.18745,0.884105 0.66855,1.702189 0.60815,2.635446 0.0729,0.03791 0.22076,0.113923 0.29366,0.153287 0.0896,0.834536 0.0834,1.70448 0.43113,2.485908 0.23118,0.535671 0.15411,1.133197 0.30823,1.685528 0.34573,0.774972 0.44778,1.644915 0.94139,2.354073 0.59356,1.258575 1.51203,2.337829 2.59295,3.206522 0.93513,0.572326 1.7099,1.408113 2.78665,1.734679 0.0541,0.139333 0.10621,0.281374 0.1562,0.425494 0.74352,0.139542 1.22255,0.762481 1.87234,1.088 0.554,0.26575 0.93305,0.764764 1.41832,1.123204 0.94139,0.6573 1.75781,1.48413 2.44302,2.40113 0.4436,0.53818 0.72476,1.18778 1.16005,1.7324 0.35614,0.43944 0.53109,0.98907 0.58107,1.54619 0.14163,0.0531 0.28117,0.10747 0.42071,0.16328 -0.005,0.58629 0.0979,1.16756 0.16036,1.7501 0.0834,-0.0519 0.24993,-0.15579 0.33116,-0.20765 0.0749,0.79267 0.19785,1.58431 0.21243,2.38324 0.31866,0.32927 0.35822,0.80538 0.277,1.23587 -0.16871,0.41674 -0.67271,0.34323 -1.03718,0.35989 -7.42899,-0.0354 -14.85797,0.0341 -22.28696,-0.0379 -0.0646,-11.64436 0.0166,-23.291017 -0.0209,-34.936631 0.7581,-0.22035 1.56826,-0.04187 2.17642,0.449654 m -38.594483,4.87164 c 0.124963,0.883897 0.0604,1.780498 0.07706,2.670852 -0.0021,7.396702 0,14.794858 -0.0021,22.191565 -0.03541,1.5514 0.08539,3.11154 -0.09163,4.65649 -0.999695,0.12663 -2.009804,0.0481 -3.013665,0.067 -14.74342,0 -29.482675,0 -44.221929,0 -3.707202,-0.0254 -7.416488,0.0546 -11.121607,-0.0416 -0.118715,-3.1128 -0.01458,-6.23185 -0.04791,-9.3459 -0.0041,-5.145305 0,-10.291652 0,-15.436958 0.02707,-1.586599 -0.07081,-3.181113 0.05207,-4.765213 19.456566,0.0177 38.913131,0.01 58.369698,0.0037 m -59.177785,5.054084 c -0.03541,0.678752 0.09163,1.378954 -0.06456,2.045002 0.104135,0.715615 0.05832,1.442476 0.05832,2.163089 0.02083,4.789373 -0.01666,9.577496 0.01666,14.366866 -1.659911,0.066 -3.321904,-0.007 -4.983896,0.0367 -0.16245,-0.1 -0.243676,-0.24306 -0.23951,-0.428 -0.01875,-6.04316 0.04166,-12.087354 -0.01041,-18.130511 1.734888,-0.163283 3.484354,-0.06581 5.223407,-0.05311 m 123.97789,25.809261 c 0.12496,0.83974 0.10205,1.69323 0.0375,2.53673 l 0.14162,-0.009 c 0.0188,-0.33823 0.0479,-0.675 0.0896,-1.00677 0.14996,0.50776 0.18953,1.45873 -0.56441,1.43727 -8.14543,0.0431 -16.29295,-0.0112 -24.44046,0.0177 -34.25414,-0.0164 -68.50619,0.0164 -102.762408,-0.014 -0.364472,-0.0276 -0.893478,0.0962 -1.014274,-0.37342 -0.09997,-0.85745 -0.01666,-1.7224 -0.04166,-2.58214 42.851514,0.004 85.703032,0.0102 128.554552,-0.006 m -122.064864,3.70429 c 0.02707,0.30762 0.05207,0.61522 0.06456,0.92826 0.02083,0.85723 0.658133,1.57786 0.545668,2.4553 0.04166,0.008 0.133292,0.0228 0.177029,0.0304 0.326984,1.21962 0.685207,2.4303 1.012192,3.65117 0.183278,0.53421 0.343645,1.09009 0.674793,1.55619 -0.01041,1.10925 0.518593,2.09582 0.718531,3.16466 0.220766,0.57858 0.387382,1.17506 0.454028,1.793 0.07706,0.0354 0.237428,0.10643 0.314488,0.14183 0.02083,0.27492 0.04582,0.54983 0.0604,0.82829 0.529005,1.0853 0.851823,2.2566 1.160062,3.41667 0.160368,0.48381 -0.360307,0.81037 -0.791425,0.73956 -10.132326,-0.0115 -20.266735,0.002 -30.399061,-0.005 -0.818501,-0.007 -1.67449,0.11268 -2.449253,-0.23431 0.0125,-0.12558 0.03124,-0.37613 0.04374,-0.50151 0.13121,-0.002 0.395713,-0.005 0.529006,-0.006 0.0062,-0.0948 0.01874,-0.2822 0.02499,-0.37842 0.237428,-0.0405 0.472773,-0.0787 0.703952,-0.11913 0.03124,-0.0899 0.09581,-0.26846 0.129128,-0.35718 1.199634,-0.41279 1.764045,-1.77779 2.992837,-2.1731 0.07914,-0.18223 0.154119,-0.36218 0.224931,-0.54066 0.41654,-0.25451 0.783095,-0.57878 1.193386,-0.83328 0.589403,-0.51672 1.095499,-1.12716 1.755715,-1.55766 0.643553,-0.40654 1.149649,-0.98262 1.732804,-1.46393 0.41654,-0.34051 0.726862,-0.81184 1.224627,-1.03822 0.545667,-0.22306 0.843493,-0.75872 1.289189,-1.1132 0.572743,-0.4484 1.053846,-1.00927 1.668243,-1.40437 0.645635,-0.41175 1.114243,-1.03614 1.747383,-1.46018 0.647719,-0.41925 1.083003,-1.08029 1.718226,-1.50829 1.089251,-0.78018 1.997308,-1.78175 3.094888,-2.54797 0.368638,-0.25075 0.581073,-0.6977 1.003861,-0.86348 0.166615,-0.32178 0.447781,-0.62065 0.837244,-0.59545 2.180586,-0.0227 4.361171,0.004 6.543838,-0.004 m 105.486574,0.0797 c 1.71614,0.32407 3.40313,0.94847 4.77563,2.05146 3.21151,2.37823 4.81936,6.68255 3.98836,10.58927 -0.34364,1.21693 -0.72894,2.44801 -1.44122,3.50914 -1.50163,2.48445 -4.12583,4.18914 -6.95205,4.76396 -1.43498,0.1837 -2.90536,0.1837 -4.33826,-0.0404 -1.74321,-0.41924 -3.40521,-1.23982 -4.74647,-2.43779 -2.28889,-2.01356 -3.64681,-5.07054 -3.54059,-8.12003 -0.0312,-4.30306 2.94285,-8.42639 7.01037,-9.81159 1.65991,-0.6725 3.4906,-0.6675 5.24423,-0.50402 m -26.23783,0.13163 c 3.86965,0.65084 7.26237,3.63056 8.29538,7.43232 0.54775,1.54869 0.46028,3.23797 0.31032,4.85144 -0.252,1.22067 -0.64147,2.43134 -1.30792,3.49644 -1.57869,2.79352 -4.52779,4.76271 -7.71015,5.168 -3.07407,0.46735 -6.29183,-0.58378 -8.60155,-2.6417 -2.22224,-2.0502 -3.61556,-5.07803 -3.43228,-8.12106 -0.0125,-0.70916 0.002,-1.42353 0.24158,-2.09728 0.40614,-2.02229 1.52871,-3.83695 2.97201,-5.29088 2.41178,-2.28826 5.9482,-3.47103 9.23261,-2.79728 m -37.767645,3.11634 c 1.947323,0.3624 3.642639,1.53121 4.858935,3.06594 0.830996,0.97013 1.303768,2.17581 1.697399,3.37377 0.160368,1.5968 0.310322,3.31795 -0.395712,4.81332 -0.333232,0.79913 -0.649802,1.63492 -1.247537,2.28077 -0.587321,0.64459 -1.210047,1.26378 -1.909835,1.7882 -0.953875,0.71042 -2.097275,1.1157 -3.244842,1.39166 -0.985117,0.13808 -1.993143,0.11267 -2.982424,0.0317 -1.751549,-0.28992 -3.361476,-1.19171 -4.625673,-2.42383 -0.703953,-0.72313 -1.378746,-1.51955 -1.732805,-2.47967 -0.7102,-1.64492 -1.043431,-3.52039 -0.562328,-5.27693 0.435283,-2.4351 2.066037,-4.59047 4.234125,-5.75679 0.97262,-0.4355 1.980646,-0.9041 3.069897,-0.90806 0.947628,-0.0137 1.90567,-0.0657 2.8408,0.1 m -21.403889,0.0799 c 0.783095,0.17974 1.468303,0.6219 2.163924,1.00178 1.426648,0.80538 2.561718,2.08187 3.228181,3.57621 0.845576,1.39415 0.764351,3.08467 0.716448,4.65254 -0.02707,1.75134 -0.93513,3.34835 -2.024381,4.66273 -0.968455,1.01699 -2.103526,1.93005 -3.46561,2.34658 -1.351672,0.59378 -2.869959,0.52817 -4.309103,0.42175 -1.391243,-0.28137 -2.77207,-0.81559 -3.877983,-1.72615 -1.166311,-1.01822 -2.182668,-2.2591 -2.707509,-3.73198 -0.537336,-1.22193 -0.556079,-2.58837 -0.47902,-3.89902 0.129128,-1.75009 0.908057,-3.41541 2.078533,-4.7121 0.970537,-1.20317 2.374276,-1.93128 3.78218,-2.49361 0.816417,-0.30262 1.693233,-0.28618 2.54714,-0.29762 0.785177,0 1.582851,0.002 2.3472,0.19889 z"
         id="path10"
         inkscape:connector-curvature="0" />
    </g>
    <path
       d="m 274.135,49.931928 c 0.0125,-0.712909 -0.64981,-1.418319 -1.38084,-1.336052 -14.69135,0.0037 -29.38479,0.005 -44.07406,0 -0.49359,0.03165 -1.05384,-0.117881 -1.4808,0.200147 -0.52067,0.58503 -0.4207,1.425815 -0.64147,2.132683 -0.1437,1.469969 -0.0771,2.962013 0.30616,4.392828 0.16453,0.239301 0.37697,0.440698 0.58524,0.643344 0.27492,0.04812 0.61023,-0.03165 0.82683,0.178696 0.18952,0.183486 0.12705,0.469648 0.14996,0.705201 -0.025,3.716783 0.006,7.433567 -0.0188,11.15035 -14.06238,0.07331 -28.12685,0.0037 -42.1913,0.03415 -0.77476,0.0037 -1.39541,0.588986 -1.82861,1.175266 -0.38114,0.750812 -0.38739,1.620964 -0.3853,2.444046 -0.006,0.855989 0.0646,1.75134 0.46444,2.524023 0.33531,0.478603 0.87473,0.75581 1.31627,1.123198 -0.006,11.607501 0,23.21251 -0.002,34.818562 -0.14787,0.12037 -0.29575,0.24325 -0.4457,0.36967 -0.21661,0.1864 -0.43529,0.37489 -0.66021,0.55858 -0.12497,0.54962 -0.29991,1.09154 -0.54984,1.59931 0.53734,-0.01 1.07676,0.006 1.6141,0.0216 0.0125,1.59931 0.006,3.20131 0.002,4.80332 -0.40195,0.019 -0.80392,0.0418 -1.21004,0.0532 0.42695,0.74456 1.24545,1.06258 1.95356,1.46788 0.74561,-0.076 1.49537,-0.0166 2.23891,0.0177 0.0604,2.9214 0.0166,5.8478 0.0188,8.77191 0.0166,0.72206 0.30407,1.40062 0.40196,2.11122 0.34572,0.32408 0.67895,0.66981 1.08092,0.92805 0.54566,0.28513 1.17255,0.39135 1.78278,0.3851 1.4204,-0.006 2.83664,-0.005 4.25287,-0.003 0.29158,1.50932 1.01429,2.89744 1.79529,4.20663 1.20172,1.26149 2.37011,2.64545 4.00085,3.36876 0.83934,0.15704 1.61619,0.61147 2.49092,0.58003 1.72239,-0.006 3.4427,-0.006 5.16301,-0.003 0.91639,0.0367 1.73905,-0.40156 2.59504,-0.65626 0.65189,-0.39114 1.30377,-0.78123 1.85569,-1.30669 1.44538,-0.87119 2.19099,-2.44905 3.0324,-3.84091 0.2291,-0.79018 0.47902,-1.57307 0.64148,-2.37595 1.03093,-0.13287 2.07853,-0.10871 3.11363,-0.0619 0.25825,-0.0254 0.31866,0.25826 0.40196,0.43821 0.21035,1.45997 1.01011,2.75687 1.85985,3.92964 1.06009,1.08258 2.0577,2.30846 3.48436,2.92515 0.56232,0.0646 1.08299,0.29136 1.58284,0.54338 1.12257,0.55835 2.4076,0.37591 3.61557,0.39757 1.10174,-0.0304 2.23265,0.12538 3.30524,-0.19119 2.28889,-0.6977 4.37575,-2.14517 5.70034,-4.15623 0.44778,-0.64709 0.73936,-1.38811 1.21005,-2.01751 0.17704,-0.72936 0.17911,-2.04499 1.20172,-2.04105 4.2362,0.005 8.46824,0.006 12.70237,0.003 0.59358,0.008 1.19131,-0.0531 1.77655,0.0456 0.45402,0.71687 0.59773,1.58057 0.70186,2.4099 0.42904,0.9068 1.03511,1.71218 1.58493,2.54548 0.44987,0.68 1.23296,1.00177 1.79946,1.56263 0.41862,0.4003 0.92055,0.69646 1.42457,0.97638 1.02051,0.21264 1.93066,0.84099 2.99492,0.85348 1.39956,0.0457 2.79915,-0.0115 4.19663,0.0179 0.99137,0.034 1.96815,-0.2343 2.84913,-0.67896 1.22255,-0.65584 2.35553,-1.47913 3.30941,-2.48841 1.00594,-0.85598 1.44956,-2.12998 2.17642,-3.1936 0.21452,-0.6017 0.35405,-1.23213 0.66646,-1.79446 1.14965,0.005 2.30138,-0.006 3.45103,0.007 0.22702,1.02574 0.40822,2.10478 1.05177,2.97202 0.53941,0.60294 0.96636,1.29814 1.5162,1.89192 1.72863,1.61993 3.87798,2.90766 6.25435,3.23318 2.01813,0.0962 4.12998,0.20265 6.02524,-0.61918 0.70186,-0.37989 1.47247,-0.6396 2.11602,-1.11821 0.7227,-0.60272 1.53911,-1.13215 2.05146,-1.94399 0.86223,-1.09153 1.41207,-2.37574 2.07854,-3.58369 0.0459,-0.27992 0.0937,-0.55962 0.13537,-0.83704 1.4558,-0.0823 2.99908,0.24951 4.36533,-0.40155 0.91431,-0.33427 1.55369,-1.24731 1.5891,-2.21494 0.0125,-3.14675 -0.0271,-6.29496 0.0188,-9.44067 1.31834,-0.0582 2.77416,0.21536 3.94879,-0.53692 1.1309,-0.59773 1.36,-2.05645 1.32044,-3.21652 -0.0709,-1.28543 0.19161,-2.62649 -0.28742,-3.85612 -0.28949,-0.4711 -0.78725,-0.77372 -1.11008,-1.22067 -0.16036,-0.32052 -0.16661,-0.68395 -0.16661,-1.03092 0.0166,-11.155361 -0.0125,-22.312167 0.0146,-33.467306 -0.0166,-1.04364 1.33502,-1.281693 1.50371,-2.247856 0.37489,-0.963664 0.24992,-2.009803 0.2416,-3.01658 -0.17911,-0.877441 -0.54984,-1.80195 -1.32252,-2.322417 -0.52901,-0.198897 -1.09758,-0.301366 -1.66199,-0.324276 -13.38341,-0.0062 -26.76474,0.01021 -40.14817,-0.009 -0.002,-3.911724 -0.0125,-7.824906 0.006,-11.73517 0.36447,-0.03166 0.77893,0.02269 1.06426,-0.253257 0.55817,-0.406751 0.60191,-1.153816 0.59566,-1.784455 -0.0104,-1.398116 0.0125,-2.797481 -0.0104,-4.192888 m -0.82266,1.537447 c 0.0312,0.648343 0.0228,1.297937 0.0125,1.946281 -15.22036,-0.0037 -30.44072,0.0277 -45.659,-0.01521 0.0166,-0.653342 -0.0937,-1.328345 0.13537,-1.955237 5.54415,0.05456 11.09038,0.0075 16.63452,0.02416 9.62415,0 19.25039,0 28.87661,0 m -3.30108,3.129045 c -0.002,4.238499 -0.0104,8.479497 0,12.720705 0.0166,0.358431 -0.0646,0.723112 -0.36447,0.954708 l 0.002,0.108925 c -4.27786,-0.05435 -8.55365,-0.0062 -12.82942,-0.02395 -8.67027,0.01395 -17.33638,-0.02291 -26.00457,0.02021 l 0.002,-0.107675 c -0.47486,-0.511511 -0.20203,-1.253576 -0.29159,-1.87672 -0.15411,-1.45893 -0.0604,-2.926607 -0.0853,-4.390327 0.0416,-2.141431 -0.10622,-4.291817 0.12288,-6.425749 0.0437,-0.512761 -0.0313,-1.042181 0.11663,-1.539739 0.31656,-0.315528 0.76226,-0.482352 1.20796,-0.473605 12.38789,0.01125 24.77369,0 37.15949,0.0062 0.5311,-0.0177 0.97888,0.512969 0.9643,1.026979 m 42.96814,16.303153 c 0.0958,0.758726 0.0646,1.524742 0.0416,2.288468 -0.56649,0.04062 -1.13507,0.05186 -1.70365,0.0429 0.29783,0.504013 0.69771,1.008027 0.66647,1.627213 -0.0166,7.238625 -0.005,14.477251 -0.008,21.715669 -0.11039,2.093323 0.0563,4.187894 0.0396,6.283704 -0.12705,2.03251 -0.0125,4.06626 -0.0396,6.10023 -0.0271,1.21568 0.15411,2.47695 -0.29991,3.64056 0.48318,0.0244 0.99344,0.0847 1.31001,0.49901 -0.0791,0 -0.23951,0 -0.31865,0 0.0292,1.26253 0.025,2.52527 0.002,3.7853 -32.98161,0 -65.96322,0.002 -98.94483,0 -8.93477,-0.0164 -17.86955,0.0354 -26.80432,-0.0254 -0.0188,-1.25629 0.0563,-2.51508 -0.0416,-3.76741 0.0896,-0.13287 0.14162,-0.37487 0.34988,-0.33926 0.42279,-0.004 0.84766,0.0289 1.26212,-0.0545 -0.23326,-0.36738 -0.63315,-0.70165 -0.62897,-1.16776 0.30616,-2.27805 0.0312,-4.57777 0.0604,-6.86728 -0.15412,-1.08405 0.1083,-2.16934 0.0459,-3.25463 -0.17912,-1.615969 -0.25826,-3.258179 -0.0291,-4.871645 0.12497,-6.416793 0.0188,-12.837126 0.0646,-19.25517 0.0292,-0.905348 -0.2166,-1.824651 0.0104,-2.720002 0.16037,-0.470065 0.45819,-0.876399 0.66437,-1.325846 -0.70396,0.0037 -1.40581,-0.01021 -2.10977,-0.01416 -0.0437,-0.697704 -0.0354,-1.395409 -0.05,-2.091863 0.0333,-0.08997 0.10205,-0.268459 0.13745,-0.358432 42.03094,-0.01 84.06187,-0.0021 126.09279,-0.0025 0.0563,0.03415 0.17288,0.09997 0.23119,0.132877 m -16.95317,50.278411 c 1.00595,0.2191 1.84736,0.82954 2.70751,1.36375 1.04343,0.76498 1.88277,1.79592 2.47009,2.94577 0.16869,0.34323 0.21243,0.72936 0.26658,1.10675 0.0646,0.0379 0.18953,0.11913 0.25409,0.15828 0.26242,1.58056 0.26867,3.19757 0.005,4.77793 -0.0625,0.0418 -0.18743,0.12538 -0.24993,0.16723 -0.0459,1.01449 -0.64771,1.87922 -1.25378,2.65169 -0.67063,0.72687 -1.35584,1.47413 -2.21807,1.98211 -0.46861,0.28617 -1.03302,0.33802 -1.52453,0.57732 -1.11841,0.56232 -2.4201,0.6446 -3.65098,0.53942 -1.22046,-0.0872 -2.32845,-0.64334 -3.44894,-1.07384 -2.02856,-1.23733 -3.54892,-3.35064 -3.95922,-5.70242 -0.19577,-1.48913 -0.14786,-3.03929 0.4103,-4.45011 0.80184,-1.87672 2.13685,-3.59765 4.01128,-4.4905 1.90566,-0.88369 4.15081,-1.23338 6.18144,-0.55338 m -23.31372,0.8485 c 0.39155,0.26221 0.77268,0.53692 1.20172,0.73832 0.34573,0.50025 0.85807,0.84452 1.23295,1.31959 0.95596,1.31585 1.80778,2.82267 1.83694,4.49051 0.002,0.74831 0.0479,1.50307 -0.0563,2.24764 -0.39987,2.07937 -1.56618,4.02087 -3.25734,5.30756 -1.95773,1.27127 -4.41531,1.94772 -6.72919,1.34854 -0.91847,-0.0825 -1.67241,-0.6446 -2.52007,-0.94721 -0.66646,-0.22035 -1.07884,-0.82309 -1.5766,-1.2792 -0.93722,-0.90389 -1.61409,-2.05146 -2.04104,-3.27588 -0.32699,-1.43101 -0.61857,-2.94305 -0.18744,-4.38554 0.17286,-1.31813 0.89348,-2.47423 1.68698,-3.51038 0.57482,-0.60647 1.13716,-1.26128 1.89109,-1.65241 0.87056,-0.53442 1.78487,-1.06259 2.81581,-1.20193 1.91816,-0.28741 3.97795,-0.16078 5.70242,0.80039 m -37.86136,-0.59003 c 0.94138,0.40008 1.89316,0.83578 2.66585,1.51953 1.43081,1.36396 2.52007,3.14696 2.79289,5.12886 0.0479,0.80913 0.0459,1.62097 -0.002,2.43009 -0.27492,2.22516 -1.60993,4.18539 -3.28442,5.61517 -0.46652,0.39883 -1.06842,0.56087 -1.63076,0.78621 -0.61438,0.22681 -1.22045,0.52567 -1.88691,0.57107 -1.36209,0.085 -2.73875,0.0648 -4.08625,-0.18473 -0.0437,-0.0608 -0.13122,-0.1862 -0.17288,-0.24951 -0.72893,-0.13787 -1.41206,-0.46735 -1.9973,-0.92451 -0.72061,-0.56462 -1.45789,-1.1511 -1.93066,-1.95148 -0.48527,-0.79018 -1.00594,-1.58661 -1.22045,-2.49841 -0.18121,-0.81058 -0.39781,-1.62221 -0.35615,-2.45925 -0.0354,-0.81163 0.2166,-1.58931 0.37072,-2.37449 0.14995,-0.70166 0.49568,-1.34104 0.90597,-1.92233 0.54984,-0.77518 1.108,-1.57409 1.88277,-2.14268 1.29335,-0.98282 2.86579,-1.69947 4.51528,-1.69448 1.14964,-0.0177 2.33887,-0.0531 3.43437,0.35094 m -26.34822,-0.15704 c 1.4079,0.11767 2.62629,0.90785 3.77385,1.66761 3.17821,2.33534 4.08418,7.04869 2.27224,10.49452 -1.47872,2.68605 -4.48822,4.52466 -7.58104,4.38158 -1.52661,0.076 -2.9491,-0.60024 -4.29035,-1.25109 -1.1913,-0.71436 -2.04521,-1.85797 -2.81164,-2.98991 -0.4582,-0.91181 -0.7956,-1.90213 -0.95596,-2.91015 -0.0708,-1.22588 -0.13538,-2.50237 0.33948,-3.66097 0.85599,-2.93057 3.48853,-5.25549 6.50635,-5.72138 0.91222,-0.0939 1.83485,-0.0875 2.74707,-0.0102 z"
       id="path12"
       class="train"
       inkscape:connector-curvature="0" />
    <path
       d="m 425.76374,48.822473 c 0.0125,-0.712699 -0.64979,-1.418109 -1.38291,-1.335842 -14.68926,0.0037 -29.3827,0.005 -44.07405,0 -0.49153,0.03165 -1.05177,-0.117881 -1.47872,0.200147 -0.52067,0.585029 -0.4207,1.425815 -0.64147,2.132266 -0.14371,1.470385 -0.0749,2.962222 0.30616,4.393244 0.16245,0.239302 0.37697,0.440698 0.58524,0.643137 0.27282,0.04811 0.60813,-0.03144 0.82683,0.178696 0.18952,0.183485 0.12704,0.469857 0.14995,0.70541 -0.025,3.716574 0.006,7.433565 -0.0188,11.150349 -14.06238,0.07353 -28.12891,0.0037 -42.19339,0.03415 -0.77476,0.0037 -1.39331,0.58878 -1.82651,1.175059 -0.38322,0.75102 -0.38739,1.620963 -0.38531,2.444046 -0.006,0.856197 0.0646,1.75134 0.46445,2.524022 0.33531,0.478604 0.87473,0.756019 1.31626,1.123198 -0.006,11.607503 0,23.212504 -0.002,34.818765 -0.14786,0.12017 -0.29574,0.24306 -0.4457,0.36968 -0.2166,0.18619 -0.43528,0.37488 -0.6602,0.55837 -0.12497,0.54982 -0.29992,1.09175 -0.54984,1.59951 0.53734,-0.0102 1.07675,0.006 1.61409,0.0215 0.0125,1.59952 0.006,3.20131 0.002,4.80333 -0.40196,0.019 -0.80601,0.0418 -1.21006,0.0533 0.42696,0.74457 1.24546,1.06238 1.95358,1.46767 0.74561,-0.076 1.49537,-0.0164 2.2389,0.0177 0.0604,2.9216 0.0166,5.848 0.0188,8.77211 0.0166,0.72186 0.30408,1.40062 0.40196,2.11102 0.34365,0.32428 0.67896,0.6698 1.08092,0.92826 0.54566,0.28491 1.17256,0.39134 1.78278,0.38488 1.42041,-0.006 2.83665,-0.005 4.25288,-0.003 0.29158,1.50934 1.01428,2.89745 1.79528,4.20663 1.20173,1.26129 2.37011,2.64545 4.00086,3.36856 0.83934,0.15704 1.61618,0.61169 2.49091,0.57983 1.7224,-0.006 3.44271,-0.006 5.16301,-0.003 0.9164,0.0369 1.73906,-0.40113 2.59296,-0.65584 0.65397,-0.39134 1.30586,-0.78143 1.85777,-1.30689 1.44539,-0.8714 2.19099,-2.44925 3.0324,-3.84091 0.22911,-0.79018 0.47903,-1.57286 0.64147,-2.37574 1.03094,-0.13287 2.07854,-0.10872 3.11365,-0.0619 0.25825,-0.0254 0.31865,0.25825 0.40195,0.43819 0.21036,1.45997 1.01012,2.75666 1.85986,3.92944 1.06008,1.08257 2.0577,2.30845 3.48435,2.92514 0.56233,0.0649 1.08092,0.29137 1.58285,0.54338 1.1205,0.55858 2.40759,0.37614 3.61557,0.39759 1.10174,-0.0304 2.23265,0.12559 3.30523,-0.1912 2.2889,-0.6977 4.37575,-2.14518 5.70035,-4.15623 0.44778,-0.64709 0.73936,-1.3879 1.21005,-2.0173 0.17703,-0.72936 0.1791,-2.0452 1.20171,-2.04145 4.23413,0.005 8.46825,0.006 12.70238,0.003 0.59356,0.007 1.1913,-0.0533 1.77653,0.0454 0.45403,0.71685 0.59775,1.58056 0.6998,2.41009 0.42903,0.9066 1.03718,1.71198 1.58493,2.54527 0.45195,0.68 1.23504,1.00156 1.79945,1.56285 0.4207,0.40008 0.92264,0.69646 1.42666,0.97637 1.02051,0.21265 1.93066,0.84058 2.99491,0.85328 1.39749,0.0456 2.79707,-0.0112 4.19663,0.0177 0.99138,0.0343 1.96816,-0.23409 2.84913,-0.67855 1.22047,-0.65604 2.35554,-1.47913 3.30941,-2.48841 1.00387,-0.85619 1.44956,-2.12998 2.17642,-3.19381 0.21452,-0.60148 0.35198,-1.23213 0.66646,-1.79446 1.14966,0.005 2.30139,-0.006 3.45104,0.008 0.22702,1.02574 0.40612,2.10457 1.05176,2.97202 0.54151,0.60273 0.96637,1.29793 1.5162,1.89192 1.72864,1.61992 3.87591,2.90765 6.25435,3.23318 2.01605,0.0963 4.12791,0.20244 6.02524,-0.61918 0.70187,-0.37989 1.47247,-0.6396 2.11603,-1.11821 0.72269,-0.60294 1.53911,-1.13215 2.05146,-1.94398 0.86223,-1.09155 1.41206,-2.37574 2.07853,-3.58372 0.0459,-0.2801 0.0937,-0.55982 0.13537,-0.83703 1.4558,-0.0825 2.99909,0.24931 4.36534,-0.40153 0.9143,-0.33449 1.55369,-1.24734 1.58909,-2.21495 0.0125,-3.14675 -0.0292,-6.29517 0.0188,-9.44067 1.31834,-0.0583 2.77415,0.21535 3.94879,-0.53692 1.1309,-0.59773 1.36,-2.05667 1.32043,-3.21651 -0.0708,-1.28545 0.19161,-2.6265 -0.28741,-3.85613 -0.2895,-0.4711 -0.78726,-0.77372 -1.11008,-1.22066 -0.16036,-0.32053 -0.1687,-0.68416 -0.1687,-1.03094 0.0188,-11.155561 -0.0104,-22.312158 0.0166,-33.467505 -0.0166,-1.043432 1.33501,-1.281485 1.50372,-2.247649 0.37487,-0.963872 0.24991,-2.009803 0.24159,-3.01658 -0.17912,-0.877648 -0.54984,-1.802159 -1.32252,-2.322416 -0.53108,-0.198898 -1.09758,-0.301367 -1.66199,-0.324276 -13.38342,-0.0065 -26.76475,0.0102 -40.14817,-0.009 -0.002,-3.911723 -0.0125,-7.824905 0.006,-11.735379 0.36448,-0.03165 0.77893,0.02291 1.06425,-0.253465 0.55818,-0.406334 0.60191,-1.153398 0.59775,-1.784247 -0.0146,-1.397907 0.0104,-2.797272 -0.0125,-4.192888 m -0.82265,1.537448 c 0.0292,0.648343 0.0228,1.298146 0.0125,1.946282 -15.22035,-0.0035 -30.4407,0.0279 -45.65898,-0.015 0.0166,-0.653551 -0.0959,-1.328554 0.1333,-1.955446 5.54413,0.05456 11.09036,0.0078 16.63658,0.02416 9.62416,0 19.2483,0 28.87662,0 m -3.30109,3.129328 c -0.002,4.238706 -0.0104,8.479704 0,12.720702 0.0166,0.358642 -0.0646,0.723322 -0.36447,0.954918 v 0.10918 c -4.27579,-0.05435 -8.55156,-0.0061 -12.82734,-0.02395 -8.67028,0.01395 -17.33638,-0.02269 -26.00457,0.02041 l 0.002,-0.107676 c -0.47485,-0.511511 -0.20201,-1.253783 -0.29157,-1.876928 -0.15412,-1.45872 -0.0604,-2.926398 -0.0853,-4.390327 0.0416,-2.14143 -0.10623,-4.291816 0.12286,-6.42554 0.0437,-0.51276 -0.0312,-1.042183 0.11456,-1.539739 0.31866,-0.315528 0.76435,-0.48277 1.21005,-0.473813 12.38788,0.01146 24.7737,0 37.1595,0.0062 0.53108,-0.01771 0.97678,0.512969 0.96429,1.026979 m 42.96606,16.303361 c 0.0979,0.758518 0.0646,1.524743 0.0437,2.28826 -0.56649,0.04062 -1.13508,0.05185 -1.70365,0.0429 0.29783,0.504221 0.6977,1.008233 0.66647,1.62742 -0.0166,7.238625 -0.005,14.477043 -0.008,21.715668 -0.11038,2.093112 0.0563,4.187881 0.0395,6.283498 -0.12705,2.03271 -0.0125,4.06647 -0.0395,6.10044 -0.0292,1.21547 0.15204,2.47674 -0.29992,3.64055 0.48319,0.0239 0.99345,0.0847 1.31003,0.49902 -0.0791,0 -0.23952,0 -0.31866,0 0.0292,1.26253 0.025,2.52506 0.002,3.78509 -32.98162,0 -65.96321,0.002 -98.94482,0 -8.93478,-0.0164 -17.87164,0.0356 -26.80434,-0.0252 -0.0209,-1.25628 0.0541,-2.51506 -0.0416,-3.76738 0.0896,-0.13309 0.14161,-0.37488 0.34989,-0.33948 0.42279,-0.004 0.84766,0.0292 1.26212,-0.0545 -0.23327,-0.36717 -0.63315,-0.70145 -0.62897,-1.16755 0.30406,-2.27826 0.0312,-4.57778 0.0603,-6.86728 -0.15411,-1.08426 0.1083,-2.16934 0.0437,-3.25463 -0.17703,-1.615976 -0.25617,-3.258595 -0.0271,-4.871853 0.12496,-6.416585 0.0188,-12.837126 0.0646,-19.254961 0.0271,-0.905348 -0.2166,-1.82486 0.008,-2.720004 0.16244,-0.470065 0.46028,-0.8764 0.66647,-1.326054 -0.70396,0.0037 -1.40582,-0.01021 -2.11187,-0.01396 -0.0416,-0.697705 -0.0333,-1.395616 -0.05,-2.092071 0.0354,-0.08976 0.10413,-0.268459 0.13954,-0.358431 42.03093,-0.01 84.06394,-0.0021 126.09279,-0.0025 0.0563,0.03415 0.17078,0.100178 0.2291,0.133084 m -16.95108,50.27842 c 1.00386,0.21909 1.84736,0.82953 2.7075,1.36375 1.04136,0.76497 1.88276,1.79591 2.47008,2.94576 0.1687,0.34323 0.21244,0.72937 0.26451,1.10675 0.0646,0.0379 0.19161,0.11892 0.25618,0.15808 0.26032,1.58055 0.26866,3.19777 0.005,4.77812 -0.0625,0.0418 -0.18746,0.12538 -0.24993,0.16703 -0.0459,1.01449 -0.64772,1.87943 -1.25378,2.65191 -0.67272,0.72685 -1.35584,1.47391 -2.21808,1.98168 -0.47068,0.28638 -1.03302,0.33823 -1.52453,0.57775 -1.11841,0.56232 -2.4201,0.64459 -3.65097,0.53941 -1.22046,-0.0875 -2.32847,-0.64334 -3.44895,-1.07405 -2.02855,-1.23712 -3.54893,-3.35064 -3.95921,-5.70221 -0.19578,-1.48934 -0.14788,-3.03928 0.41028,-4.45011 0.80184,-1.87672 2.13686,-3.59786 4.01129,-4.4905 1.90566,-0.88411 4.15082,-1.23359 6.18145,-0.55337 m -23.31581,0.84848 c 0.39155,0.26201 0.77477,0.53693 1.2038,0.73832 0.34572,0.50027 0.85807,0.84453 1.23295,1.3194 0.95597,1.31584 1.80571,2.82287 1.83694,4.4905 0.002,0.74852 0.0479,1.50328 -0.0563,2.24785 -0.39988,2.07937 -1.56827,4.02085 -3.25735,5.30734 -1.95981,1.27148 -4.4174,1.94774 -6.72919,1.34876 -0.91847,-0.0825 -1.67241,-0.64459 -2.52006,-0.94722 -0.66647,-0.22056 -1.08092,-0.82329 -1.5766,-1.27918 -0.93722,-0.90411 -1.61618,-2.05147 -2.04313,-3.2761 -0.32491,-1.43101 -0.61648,-2.94285 -0.18745,-4.38532 0.17495,-1.31835 0.89556,-2.47445 1.68698,-3.51039 0.57691,-0.60648 1.13924,-1.26128 1.89319,-1.65262 0.87056,-0.53442 1.78487,-1.06238 2.81372,-1.20171 1.92025,-0.28763 3.98003,-0.16079 5.70242,0.80037 m -37.85929,-0.59023 c 0.94139,0.40008 1.89318,0.83578 2.66586,1.51975 1.43082,1.36374 2.52007,3.14674 2.79082,5.12864 0.05,0.80912 0.0479,1.62097 -0.002,2.43009 -0.27284,2.22515 -1.60784,4.18539 -3.28233,5.61516 -0.46652,0.39884 -1.07051,0.56108 -1.63076,0.78642 -0.61439,0.22682 -1.22045,0.52547 -1.88691,0.57109 -1.36418,0.0847 -2.73875,0.0646 -4.08626,-0.18474 -0.0437,-0.0608 -0.13121,-0.18641 -0.17287,-0.24951 -0.73103,-0.13808 -1.41207,-0.46735 -1.99731,-0.92451 -0.72061,-0.56483 -1.45997,-1.15111 -1.93066,-1.95149 -0.48526,-0.79017 -1.00595,-1.5866 -1.22254,-2.49861 -0.17912,-0.81038 -0.39571,-1.62201 -0.35406,-2.45925 -0.0354,-0.81163 0.2166,-1.58909 0.37072,-2.37449 0.14996,-0.70145 0.49569,-1.34104 0.90597,-1.92232 0.54984,-0.77497 1.10591,-1.5739 1.88276,-2.14248 1.29127,-0.98282 2.8658,-1.69947 4.5153,-1.69448 1.14964,-0.0177 2.33886,-0.0531 3.43436,0.35073 m -26.3503,-0.15703 c 1.40999,0.11787 2.62837,0.90804 3.77593,1.66782 3.17821,2.33512 4.08209,7.04868 2.27222,10.49451 -1.4787,2.68585 -4.4882,4.52466 -7.58101,4.38158 -1.52662,0.076 -2.95118,-0.60044 -4.29035,-1.2513 -1.1934,-0.71415 -2.04522,-1.85775 -2.81166,-2.9897 -0.45819,-0.91181 -0.79559,-1.90234 -0.95594,-2.91015 -0.0709,-1.22588 -0.13538,-2.50258 0.33947,-3.66097 0.85599,-2.93057 3.48851,-5.25548 6.50635,-5.72159 0.91223,-0.0937 1.83485,-0.0872 2.74707,-0.0102 z"
       id="path14"
       class="train"
       inkscape:connector-curvature="0" />
    <rect
       width="20.624504"
       height="4.3953853"
       x="163.49947"
       y="112.64585"
       class="train"
       id="rect16" />
    <rect
       width="20.624504"
       height="4.3953853"
       x="315.129"
       y="111.53684"
       class="train"
       id="rect18" />
  </g>
</svg>
