<?xml version="1.0" encoding="UTF-8"?>
<svg xmlns="http://www.w3.org/2000/svg" width="400" height="120" viewBox="0 0 400 120" role="img" aria-label="stubwheel">
<rect x="0.5" y="0.5" width="399" height="119" rx="6" fill="#0d1117" stroke="#30363d"/>
<g transform="translate(20,18) scale(1.1)"><path fill="#8b949e" fill-rule="evenodd" d="M4 2a2 2 0 0 0-2 2v12.5a.5.5 0 0 0 .8.4L6 14l3.2 2.9a.5.5 0 0 0 .8-.4V4a2 2 0 0 0-2-2H4zm0 1h4a1 1 0 0 1 1 1v10.1l-2.4-2.2a.75.75 0 0 0-1.1 0L3 14.1V4a1 1 0 0 1 1-1z"/></g>
<text x="42" y="32" font-family="-apple-system,BlinkMacSystemFont,Segoe UI,Helvetica,Arial,sans-serif" font-size="14" font-weight="600" fill="#2f81f7">stubwheel</text>
<text x="20" y="52" font-family="-apple-system,BlinkMacSystemFont,Segoe UI,Helvetica,Arial,sans-serif" font-size="12" fill="#8b949e">a script that reserves a project name on pypi</text>
<circle cx="25" cy="97" r="5" fill="#3572A5"/>
<text x="36" y="100" font-family="-apple-system,BlinkMacSystemFont,Segoe UI,Helvetica,Arial,sans-serif" font-size="12" fill="#8b949e">Python</text>
<g transform="translate(98,89) scale(0.85)"><path fill="#8b949e" fill-rule="evenodd" d="M8 .25a.75.75 0 0 1 .673.418l1.882 3.815 4.21.612a.75.75 0 0 1 .416 1.279l-3.046 2.97.719 4.192a.75.75 0 0 1-1.088.791L8 12.347l-3.766 1.98a.75.75 0 0 1-1.088-.79l.72-4.194L.818 6.374a.75.75 0 0 1 .416-1.28l4.21-.611L7.327.668A.75.75 0 0 1 8 .25z"/></g>
<text x="114" y="100" font-family="-apple-system,BlinkMacSystemFont,Segoe UI,Helvetica,Arial,sans-serif" font-size="12" fill="#8b949e">0</text>
</svg>
